REM DIRINDEX 1\2,1\3\7,1\3\8,1\4\9,1\4\10,1\4\11,1\5\12,1\5\13,1\5\14,1\6\15,1\6\16,1\6\17
REM DIRNAME "folder01","folder02","folder03","folder04","folder05","folder06","folder07","folder08","folder09","folder10","folder11","folder12","folder13","folder14","folder15","folder16","folder17"
TITLE ""
FILE "2Q_t_0135-0152.mp3" MP3
  TRACK 01 AUDIO
    TITLE "7:cjc174_2005"
    INDEX 01 00:00:00
  TRACK 02 AUDIO
    TITLE "0:"
    INDEX 01 00:01:16
  TRACK 03 AUDIO
    TITLE "8:cjc174_2006"
    INDEX 01 00:01:61
  TRACK 04 AUDIO
    TITLE "0:"
    INDEX 01 00:03:73
  TRACK 05 AUDIO
    TITLE "7:cjc174_2007"
    INDEX 01 00:04:41
  TRACK 06 AUDIO
    TITLE "0:"
    INDEX 01 00:05:68
  TRACK 07 AUDIO
    TITLE "8:cjc174_2008"
    INDEX 01 00:06:44
  TRACK 08 AUDIO
    TITLE "0:"
    INDEX 01 00:10:28
  TRACK 09 AUDIO
    TITLE "7:cjc174_2009"
    INDEX 01 00:10:71
  TRACK 10 AUDIO
    TITLE "0:"
    INDEX 01 00:12:10
  TRACK 11 AUDIO
    TITLE "8:cjc174_2010"
    INDEX 01 00:12:68
  TRACK 12 AUDIO
    TITLE "0:"
    INDEX 01 00:14:34
  TRACK 13 AUDIO
    TITLE "7:cjc174_2011"
    INDEX 01 00:15:02
  TRACK 14 AUDIO
    TITLE "0:"
    INDEX 01 00:15:75
  TRACK 15 AUDIO
    TITLE "8:cjc174_2012"
    INDEX 01 00:16:49
  TRACK 16 AUDIO
    TITLE "0:"
    INDEX 01 00:17:62
  TRACK 17 AUDIO
    TITLE "7:cjc174_2013"
    INDEX 01 00:18:32
  TRACK 18 AUDIO
    TITLE "0:"
    INDEX 01 00:19:51
  TRACK 19 AUDIO
    TITLE "8:cjc174_2014"
    INDEX 01 00:20:21
  TRACK 20 AUDIO
    TITLE "0:"
    INDEX 01 00:21:18
  TRACK 21 AUDIO
    TITLE "7:cjc174_2015"
    INDEX 01 00:21:63
  TRACK 22 AUDIO
    TITLE "0:"
    INDEX 01 00:23:13
  TRACK 23 AUDIO
    TITLE "8:cjc174_2016"
    INDEX 01 00:23:60
  TRACK 24 AUDIO
    TITLE "0:"
    INDEX 01 00:27:42
  TRACK 25 AUDIO
    TITLE "7:cjc174_2017"
    INDEX 01 00:28:13
  TRACK 26 AUDIO
    TITLE "0:"
    INDEX 01 00:29:35
  TRACK 27 AUDIO
    TITLE "8:cjc174_2018"
    INDEX 01 00:30:09
  TRACK 28 AUDIO
    TITLE "0:"
    INDEX 01 00:33:10
  TRACK 29 AUDIO
    TITLE "7:cjc174_2019"
    INDEX 01 00:33:55
  TRACK 30 AUDIO
    TITLE "0:"
    INDEX 01 00:34:66
  TRACK 31 AUDIO
    TITLE "8:cjc174_2020"
    INDEX 01 00:35:36
  TRACK 32 AUDIO
    TITLE "0:"
    INDEX 01 00:36:53
  TRACK 33 AUDIO
    TITLE "7:cjc174_2021"
    INDEX 01 00:37:23
  TRACK 34 AUDIO
    TITLE "0:"
    INDEX 01 00:38:40
  TRACK 35 AUDIO
    TITLE "8:cjc174_2022"
    INDEX 01 00:39:14
  TRACK 36 AUDIO
    TITLE "0:"
    INDEX 01 00:42:34
  TRACK 37 AUDIO
    TITLE "7:cjc174_2023"
    INDEX 01 00:43:04
  TRACK 38 AUDIO
    TITLE "0:"
    INDEX 01 00:44:37
  TRACK 39 AUDIO
    TITLE "8:cjc174_2024"
    INDEX 01 00:45:15
  TRACK 40 AUDIO
    TITLE "0:"
    INDEX 01 00:47:35
  TRACK 41 AUDIO
    TITLE "7:cjc174_2025"
    INDEX 01 00:48:05
  TRACK 42 AUDIO
    TITLE "0:"
    INDEX 01 00:49:42
  TRACK 43 AUDIO
    TITLE "8:cjc174_2026"
    INDEX 01 00:50:14
  TRACK 44 AUDIO
    TITLE "0:"
    INDEX 01 00:53:24
  TRACK 45 AUDIO
    TITLE "7:cjc174_2027"
    INDEX 01 00:53:67
  TRACK 46 AUDIO
    TITLE "0:"
    INDEX 01 00:55:03
  TRACK 47 AUDIO
    TITLE "8:cjc174_2028"
    INDEX 01 00:55:51
  TRACK 48 AUDIO
    TITLE "0:"
    INDEX 01 00:57:71
  TRACK 49 AUDIO
    TITLE "7:cjc174_2029"
    INDEX 01 00:58:43
  TRACK 50 AUDIO
    TITLE "0:"
    INDEX 01 00:59:42
  TRACK 51 AUDIO
    TITLE "8:cjc174_2030"
    INDEX 01 01:00:14
  TRACK 52 AUDIO
    TITLE "0:"
    INDEX 01 01:01:26
  TRACK 53 AUDIO
    TITLE "7:cjc174_2031"
    INDEX 01 01:01:69
  TRACK 54 AUDIO
    TITLE "0:"
    INDEX 01 01:03:17
  TRACK 55 AUDIO
    TITLE "8:cjc174_2032"
    INDEX 01 01:03:66
  TRACK 56 AUDIO
    TITLE "0:"
    INDEX 01 01:07:18
  TRACK 57 AUDIO
    TITLE "7:cjc174_2033"
    INDEX 01 01:07:64
  TRACK 58 AUDIO
    TITLE "0:"
    INDEX 01 01:08:75
  TRACK 59 AUDIO
    TITLE "8:cjc174_2034"
    INDEX 01 01:09:45
  TRACK 60 AUDIO
    TITLE "0:"
    INDEX 01 01:10:38
  TRACK 61 AUDIO
    TITLE "7:cjc174_2035"
    INDEX 01 01:11:08
  TRACK 62 AUDIO
    TITLE "0:"
    INDEX 01 01:12:25
  TRACK 63 AUDIO
    TITLE "8:cjc174_2036"
    INDEX 01 01:12:72
  TRACK 64 AUDIO
    TITLE "0:"
    INDEX 01 01:16:68
  TRACK 65 AUDIO
    TITLE "7:cjc174_2037"
    INDEX 01 01:17:38
  TRACK 66 AUDIO
    TITLE "0:"
    INDEX 01 01:18:40
  TRACK 67 AUDIO
    TITLE "8:cjc174_2038"
    INDEX 01 01:19:12
  TRACK 68 AUDIO
    TITLE "0:"
    INDEX 01 01:22:22
  TRACK 69 AUDIO
    TITLE "7:cjc174_2039"
    INDEX 01 01:22:67
  TRACK 70 AUDIO
    TITLE "0:"
    INDEX 01 01:24:01
  TRACK 71 AUDIO
    TITLE "8:cjc174_2040"
    INDEX 01 01:24:48
  TRACK 72 AUDIO
    TITLE "0:"
    INDEX 01 01:25:65
